<svg width="122" height="122" viewBox="0 0 122 122" fill="none" xmlns="http://www.w3.org/2000/svg">
<circle cx="61" cy="61" r="61" fill="#DF8A58"/>
<path d="M57.477 23.0776C53.804 23.7251 55.0979 24.2679 53.0736 26.336C50.945 28.5084 50.5902 30.5519 50.1937 33.6018C49.6719 37.5081 48.8618 41.0503 55.8074 42.8679C63.2368 44.2674 60.816 44.1096 55.8074 44.8912C62.2142 44.8912 50.0476 47.3678 46.5416 48.6002C38.9244 51.3367 40.4061 50.9398 39.2792 51.9634C38.0061 53.1123 37.2966 53.7808 35.1262 58.8986C33.3315 63.16 33.5197 61.2173 33.4362 62.8049C33.3319 64.8311 32.9768 67.0245 34.0829 68.5285C36.4828 71.8081 36.2114 73.1242 39.1957 70.3877C40.427 69.2597 41.053 68.1316 42.8478 63.8076C43.5991 61.9484 43.8077 61.656 44.3503 61.468C45.7694 60.9666 51.3623 54.6372 51.4667 58.9613C51.5293 61.1338 51.3832 67.1081 51.4667 67.4423C51.5919 68.0063 48.8581 74.0642 47.752 75.3802C46.7712 76.55 42.0756 81.9791 36.3784 88.3503C35.0219 89.8544 35.0017 92.4049 34.6678 93.4076C33.6452 96.4783 36.0652 95.7604 39.0703 97.3479C41.3868 98.5804 37.4218 101.325 39.1331 100.197C39.5713 99.9041 41.533 97.8152 43.5156 95.5383C46.4164 92.2169 52.3223 85.4488 55.8074 81.4799C56.0996 81.1456 59.3817 78.6505 59.5278 78.6505C59.7782 78.6505 71.4592 89.5849 73.1914 91.632C76.8226 95.977 77.6153 98.136 79.2639 98.3867C80.7248 98.5956 79.0764 99.9668 80.099 99.3819C81.2259 98.7135 83.8346 95.8725 84.6902 94.3894C85.2328 93.4285 85.3163 93.1152 85.3163 91.632C85.3163 90.1489 85.2328 89.8355 84.6902 88.8746C84.1476 87.9346 80.6416 84.1537 66.3881 69.1343C65.4281 68.1316 65.3863 68.0272 65.3863 66.8574C65.3863 65.9801 67.6499 63.0693 67.8377 63.0693C68.0047 63.0693 69.5904 64.6634 72.5121 65.6661L77.7058 67.2243L79.7833 67.7436C82.3711 67.7436 82.0398 69.009 83.5841 67.3587C85.1285 65.6876 85.3163 65.2072 85.3163 62.8049C85.3163 60.9458 85.2537 60.5906 84.7528 59.6506C83.6885 57.6453 82.1651 56.6217 78.4295 55.4937C77.4069 55.2012 75.2365 54.5119 73.6296 53.9896L70.708 53.0496L67.3272 49.6865C65.449 47.8273 63.9255 46.2189 63.9255 46.0935C63.9255 45.9682 64.1968 45.7175 64.5307 45.5086C65.6994 44.8193 68.2245 42.1246 68.9967 40.7459C70.6245 37.8423 71.0627 33.8316 70.1236 30.5728C68.8506 26.207 65.3029 24.122 61.0247 23.0776C59.543 22.7224 58.3117 22.9313 57.477 23.0776ZM63.9255 25.155C67.348 25.9906 68.308 29.102 68.6002 32.9456C68.7045 34.1781 68.7954 35.119 68.3571 36.5812C67.8771 38.0852 67.3689 39.4457 65.5533 40.4807C62.5629 42.0426 59.9569 41.4436 56.9309 41.2556C51.4423 40.9213 47.4181 37.2992 48.7746 32.0351C49.2128 30.2804 49.985 29.0061 51.4667 27.5648C53.6162 25.455 60.5865 24.3403 63.9255 25.155ZM57.477 48.6002C58.7291 49.0389 60.5641 49.5181 61.0859 50.6043C61.5033 51.4816 62.644 52.1514 62.644 59.6506C62.644 64.1209 62.644 67.9228 62.644 68.7824C62.9153 69.9939 62.9029 70.3053 65.3863 72.9374C66.5133 74.1489 69.0758 76.6451 70.954 78.6505C72.8531 80.6558 75.2295 82.8624 76.1477 83.8442C77.0451 84.826 78.3272 86.5427 78.7446 86.9604C80.1637 88.3182 82.2341 90.9845 82.3802 91.632C82.7976 93.5538 79.0138 94.7654 77.073 94.2432C76.28 94.0343 76.4469 94.2014 67.8906 85.2608C57.3726 74.2731 56.6422 73.542 54.4092 71.9961C52.698 70.8264 51.3623 69.3641 50.6945 67.9228C50.2771 67.0454 50.2563 66.565 50.1937 60.904L51.4667 54.7593L47.8772 56.0126C45.8947 56.702 43.6825 57.4749 42.9521 57.7256L41.6374 58.1851L40.8303 62.8049C38.9312 67.505 36.6288 66.9201 35.6897 67.3796C35.001 67.7139 34.7506 67.7347 34.0828 67.5259C33.6445 67.4005 33.0393 67.0036 32.7471 66.6485C31.8915 65.6458 32.0167 64.7685 33.4358 61.468C34.1245 59.9013 34.8758 58.1048 35.1262 57.4573C36.1488 54.6999 36.5244 54.4492 43.7243 51.9634C46.1659 51.1278 49.5259 49.958 51.1954 49.3731C54.5136 48.2033 55.8283 48.0362 57.477 48.6002ZM66.9306 55.1803C67.5985 55.8697 68.5217 54.5504 68.8765 54.7593C69.2313 54.9891 71.7305 57.2451 74.5896 58.1851C77.9912 59.3131 82.6074 61.1755 82.8996 61.468C83.8387 62.408 84.6067 63.6247 83.5841 64.6274C82.645 65.5674 78.4712 65.228 73.1914 63.4107L68.6002 61.844L66.9933 60.3609L65.3863 58.8986L65.3863 56.4128C65.3863 55.055 65.4698 53.927 65.5533 53.927C65.6368 53.927 66.2628 54.491 66.9306 55.1803ZM53.163 74.9408C54.1021 75.9434 54.8534 76.9043 54.8534 77.0924C54.8534 77.2595 53.6648 79.7043 52.517 80.9785C50.6179 83.0465 47.7797 86.3262 45.2545 89.2924C44.7537 89.8982 43.6268 91.1725 42.7503 92.1334C41.8738 93.0943 41.0181 94.0969 40.8303 94.3894C40.0999 95.5174 37.1505 95.9143 36.3784 96.1441C35.6897 96.353 35.4601 96.3321 34.6671 95.9561C33.5819 95.413 33.0393 94.5774 33.0393 93.4076C33.0393 92.384 33.248 91.9245 34.2706 90.7756C34.688 90.316 36.0653 88.7284 37.3175 87.2453C38.5905 85.783 40.2809 83.8403 41.0739 82.9212C41.8878 82.0021 42.8895 80.8114 43.3278 80.2892C43.7869 79.746 44.6425 78.7434 45.2477 78.054C45.8529 77.3647 46.9798 76.0695 47.752 75.1713C48.5033 74.294 49.2546 73.5628 49.4215 73.5628C49.5676 73.5628 52.2448 73.9381 53.163 74.9408Z" fill="#CBDCE6"/>
<path d="M60.3591 21.047C56.6861 21.6946 54.2236 22.8644 52.1993 24.9324C50.0706 27.1049 48.8602 29.6325 48.4637 32.6823C47.942 36.5886 49.4654 40.6829 52.5332 43.7536C53.3053 44.5056 53.681 45.0278 53.5557 45.1532C53.4305 45.2785 50.488 46.3856 46.982 47.6181C39.3648 50.3546 38.9474 50.5217 37.8205 51.5453C36.5475 52.6942 36.2136 53.3209 34.0432 58.4387C32.2484 62.7001 32.1024 63.1388 32.0189 64.7264C31.9145 66.7526 32.2276 67.8807 33.3336 69.3847C35.7336 72.6643 40.3665 73.1238 43.3508 70.3874C44.5821 69.2593 45.2081 68.1313 47.0029 63.8073C47.7541 61.9481 47.9628 61.6557 48.5054 61.4677C49.9245 60.9663 49.8828 60.8201 49.9871 65.1442C50.0497 67.3166 50.1541 69.3638 50.2376 69.698C50.3628 70.262 50.2376 70.5127 49.1315 71.8287C48.1507 72.9985 41.3682 80.644 35.671 87.0152C34.3145 88.5192 33.2502 90.1277 32.9163 91.1304C31.8937 94.2011 33.7093 98.4416 36.7144 100.029C39.0309 101.262 41.5769 101.324 43.2882 100.196C43.7264 99.9038 45.6881 97.8149 47.6707 95.538C50.5715 92.2166 56.4774 85.4485 59.9625 81.4795C60.2547 81.1453 60.5886 80.8737 60.7347 80.8737C60.9851 80.8737 72.3588 92.7179 74.0909 94.7651C77.7221 99.11 78.4734 99.7576 80.122 100.008C81.5829 100.217 83.2315 99.9665 84.2541 99.3816C85.381 98.7131 87.9897 95.8722 88.8453 94.3891C89.3879 93.4282 89.4714 93.1148 89.4714 91.6317C89.4714 90.1486 89.3879 89.8352 88.8453 88.8743C88.3027 87.9343 84.7967 84.1534 70.5431 69.134C69.5832 68.1313 69.5414 68.0269 69.5414 66.8571C69.5414 65.9797 69.6249 65.6246 69.8127 65.6246C69.9797 65.6246 72.484 66.4393 75.4056 67.442L80.7064 69.2593L82.8976 69.2802C85.4854 69.2802 86.1949 69.0087 87.7392 67.3584C89.2836 65.6873 89.4714 65.2068 89.4714 62.8046C89.4714 60.9454 89.4088 60.5903 88.9079 59.6503C87.8436 57.6449 86.3201 56.6214 82.5846 55.4933C81.562 55.2009 79.3916 54.5116 77.7847 53.9893L74.863 53.0493L71.4823 49.6861C69.604 47.827 68.0806 46.2185 68.0806 46.0932C68.0806 45.9679 68.3519 45.7172 68.6858 45.5083C69.8545 44.819 72.3796 42.1242 73.1518 40.7456C74.7796 37.842 75.2178 33.8312 74.2787 30.5725C73.0057 26.2067 69.2284 22.5093 64.9502 21.4648C63.4685 21.1097 61.1938 20.9008 60.3591 21.047ZM64.1155 25.5591C67.538 26.3947 70.2301 29.7578 70.5223 33.6014C70.6266 34.8339 70.5431 35.3979 70.1049 36.8602C69.6249 38.3642 69.3745 38.8029 68.2893 39.9727C66.1398 42.3331 64.0737 43.1896 61.0477 43.0016C55.5592 42.6674 51.5732 37.2988 52.9297 32.0348C53.3679 30.2801 54.1401 29.0058 55.6218 27.5645C57.7713 25.4547 60.7764 24.7444 64.1155 25.5591ZM61.6321 48.5999C62.8842 49.0386 63.9903 49.9786 64.512 51.0648C64.9294 51.9422 64.9502 52.2973 64.9502 59.7965C64.9502 64.2668 65.0546 68.006 65.1798 68.5282C65.4511 69.7398 66.1606 70.7216 68.6441 73.3536C69.771 74.5652 72.2544 77.1764 74.1326 79.1817C76.0317 81.1871 78.3064 83.6311 79.2247 84.6129C80.122 85.5947 81.2072 86.7436 81.6246 87.1614C83.0437 88.5192 84.5254 90.441 84.6715 91.0886C85.0889 93.0104 83.1689 94.7651 81.2281 94.2429C80.4351 94.034 80.602 94.2011 72.0457 85.2605C61.5277 74.2728 60.7973 73.5416 58.5643 71.9958C56.8531 70.826 55.5174 69.3638 54.8496 67.9224C54.4322 67.0451 54.4114 66.5646 54.3488 60.9037L54.2862 54.804L50.6967 56.0574C48.7141 56.7467 46.502 57.5196 45.7716 57.7703L44.4568 58.2298L43.2256 61.2379C41.3265 65.938 40.7839 66.9198 39.8448 67.3793C39.1561 67.7135 38.9057 67.7344 38.2379 67.5255C37.7996 67.4002 37.1944 67.0033 36.9022 66.6482C36.0466 65.6455 36.1718 64.7682 37.5909 61.4677C38.2796 59.901 39.0309 58.1045 39.2813 57.4569C40.3039 54.6996 40.6795 54.4489 47.8794 51.9631C50.321 51.1275 53.681 49.9577 55.3505 49.3728C58.6687 48.203 59.9834 48.0359 61.6321 48.5999ZM71.0857 55.18C71.7536 55.8694 72.6092 56.6214 72.964 56.8303C73.3187 57.06 75.9691 58.0209 78.8282 58.961C82.2298 60.089 84.2124 60.8619 84.5045 61.1543C85.4436 62.0943 85.381 63.3895 84.3585 64.3922C83.4193 65.3322 82.6263 65.2277 77.3465 63.4104L72.7553 61.8437L71.1483 60.3605L69.5414 58.8983L69.5414 56.4125C69.5414 55.0547 69.6249 53.9267 69.7084 53.9267C69.7919 53.9267 70.4179 54.4907 71.0857 55.18ZM55.5383 75.3799C56.4774 76.3826 57.2287 77.3435 57.2287 77.5315C57.2287 77.6986 56.2687 78.8684 55.1209 80.1426C53.2218 82.2107 50.3836 85.4903 47.8585 88.4565C47.3576 89.0623 46.2307 90.3366 45.3542 91.2975C44.4777 92.2584 43.6221 93.2611 43.4343 93.5535C42.7038 94.6815 41.3056 95.914 40.5335 96.1438C39.8448 96.3527 39.6152 96.3318 38.8222 95.9558C37.737 95.4126 37.1944 94.5771 37.1944 93.4073C37.1944 92.3837 37.4031 91.9241 38.4257 90.7752C38.8431 90.3157 40.2204 88.7281 41.4726 87.245C42.7456 85.7827 44.436 83.84 45.229 82.9209C46.0429 82.0018 47.0446 80.8111 47.4829 80.2889C47.942 79.7457 48.7976 78.743 49.4028 78.0537C50.008 77.3644 51.1349 76.0692 51.9071 75.171C52.6584 74.2936 53.4097 73.5625 53.5766 73.5625C53.7227 73.5625 54.6201 74.3772 55.5383 75.3799Z" fill="black"/>
</svg>
